<mxfile host="app.diagrams.net" agent="Mozilla/5.0 (X11; Linux x86_64; rv:137.0) Gecko/20100101 Firefox/137.0" version="26.2.12">
  <diagram id="C5RBs43oDa-KdzZeNtuy" name="Package diagram">
    <mxGraphModel dx="1264" dy="1054" grid="1" gridSize="10" guides="1" tooltips="1" connect="1" arrows="1" fold="1" page="1" pageScale="1" pageWidth="827" pageHeight="1169" math="0" shadow="0">
      <root>
        <mxCell id="WIyWlLk6GJQsqaUBKTNV-0" />
        <mxCell id="WIyWlLk6GJQsqaUBKTNV-1" parent="WIyWlLk6GJQsqaUBKTNV-0" />
        <mxCell id="77aB3ofyBqWe6kKq4eWd-4" style="edgeStyle=orthogonalEdgeStyle;rounded=0;orthogonalLoop=1;jettySize=auto;html=1;" edge="1" parent="WIyWlLk6GJQsqaUBKTNV-1" source="77aB3ofyBqWe6kKq4eWd-0" target="77aB3ofyBqWe6kKq4eWd-1">
          <mxGeometry relative="1" as="geometry" />
        </mxCell>
        <mxCell id="77aB3ofyBqWe6kKq4eWd-0" value="View" style="shape=folder;fontStyle=1;spacingTop=10;tabWidth=40;tabHeight=14;tabPosition=left;html=1;whiteSpace=wrap;" vertex="1" parent="WIyWlLk6GJQsqaUBKTNV-1">
          <mxGeometry x="50" y="110" width="240" height="250" as="geometry" />
        </mxCell>
        <mxCell id="77aB3ofyBqWe6kKq4eWd-5" style="edgeStyle=orthogonalEdgeStyle;rounded=0;orthogonalLoop=1;jettySize=auto;html=1;" edge="1" parent="WIyWlLk6GJQsqaUBKTNV-1" source="77aB3ofyBqWe6kKq4eWd-1" target="77aB3ofyBqWe6kKq4eWd-2">
          <mxGeometry relative="1" as="geometry" />
        </mxCell>
        <mxCell id="77aB3ofyBqWe6kKq4eWd-1" value="ViewModel" style="shape=folder;fontStyle=1;spacingTop=10;tabWidth=40;tabHeight=14;tabPosition=left;html=1;whiteSpace=wrap;" vertex="1" parent="WIyWlLk6GJQsqaUBKTNV-1">
          <mxGeometry x="414" y="110" width="240" height="250" as="geometry" />
        </mxCell>
        <mxCell id="77aB3ofyBqWe6kKq4eWd-2" value="Model" style="shape=folder;fontStyle=1;spacingTop=10;tabWidth=40;tabHeight=14;tabPosition=left;html=1;whiteSpace=wrap;" vertex="1" parent="WIyWlLk6GJQsqaUBKTNV-1">
          <mxGeometry x="750" y="110" width="240" height="250" as="geometry" />
        </mxCell>
        <mxCell id="77aB3ofyBqWe6kKq4eWd-8" style="edgeStyle=orthogonalEdgeStyle;rounded=0;orthogonalLoop=1;jettySize=auto;html=1;" edge="1" parent="WIyWlLk6GJQsqaUBKTNV-1" source="77aB3ofyBqWe6kKq4eWd-3" target="77aB3ofyBqWe6kKq4eWd-2">
          <mxGeometry relative="1" as="geometry" />
        </mxCell>
        <mxCell id="77aB3ofyBqWe6kKq4eWd-3" value="Network" style="shape=folder;fontStyle=1;spacingTop=10;tabWidth=40;tabHeight=14;tabPosition=left;html=1;whiteSpace=wrap;" vertex="1" parent="WIyWlLk6GJQsqaUBKTNV-1">
          <mxGeometry x="750" y="400" width="240" height="250" as="geometry" />
        </mxCell>
        <mxCell id="77aB3ofyBqWe6kKq4eWd-7" style="edgeStyle=orthogonalEdgeStyle;rounded=0;orthogonalLoop=1;jettySize=auto;html=1;entryX=0;entryY=0;entryDx=0;entryDy=132;entryPerimeter=0;" edge="1" parent="WIyWlLk6GJQsqaUBKTNV-1" source="77aB3ofyBqWe6kKq4eWd-1" target="77aB3ofyBqWe6kKq4eWd-3">
          <mxGeometry relative="1" as="geometry">
            <Array as="points">
              <mxPoint x="540" y="532" />
            </Array>
          </mxGeometry>
        </mxCell>
      </root>
    </mxGraphModel>
  </diagram>
</mxfile>
